inDegrees=no
num_controls=7
num_derivatives=13
num_iterations=91
num_multipliers=7
num_parameters=0
num_slacks=7
num_states=26
objective=0.431139
objective_accelerations=0.051090
objective_balance=0.006868
objective_effort=0.031548
objective_height=0.340481
objective_ligament=0.001153
solver_duration=1566.878614
status=Solve_Succeeded
success=true
DataType=double
version=3
OpenSimVersion=4.5
endheader
time	/jointset/ground_pelvis/pelvis_tilt/value	/jointset/ground_pelvis/pelvis_tx/value	/jointset/ground_pelvis/pelvis_ty/value	/jointset/hip_l/hip_flexion_l/value	/jointset/hip_l/hip_adduction_l/value	/jointset/hip_l/hip_rotation_l/value	/jointset/back/lumbar_extension/value	/jointset/patellofemoral_l/patellar_flexion_l/value	/jointset/knee_l/knee_flexion_l/value	/jointset/knee_l/knee_adduction_l/value	/jointset/knee_l/knee_rotation_l/value	/jointset/ankle_l/ankle_angle_l/value	/jointset/subtalar_l/subtalar_angle_l/value	/jointset/ground_pelvis/pelvis_tilt/speed	/jointset/ground_pelvis/pelvis_tx/speed	/jointset/ground_pelvis/pelvis_ty/speed	/jointset/hip_l/hip_flexion_l/speed	/jointset/hip_l/hip_adduction_l/speed	/jointset/hip_l/hip_rotation_l/speed	/jointset/back/lumbar_extension/speed	/jointset/patellofemoral_l/patellar_flexion_l/speed	/jointset/knee_l/knee_flexion_l/speed	/jointset/knee_l/knee_adduction_l/speed	/jointset/knee_l/knee_rotation_l/speed	/jointset/ankle_l/ankle_angle_l/speed	/jointset/subtalar_l/subtalar_angle_l/speed	/forceset/tau_hip_flexion_l	/forceset/tau_hip_adduction_l	/forceset/tau_hip_rotation_l	/forceset/tau_knee_flexion_l	/forceset/tau_ankle_angle_l	/forceset/tau_subtalar_angle_l	/forceset/tau_lumbar_extension	lambda_cid13_p0	lambda_cid13_p1	lambda_cid13_p2	lambda_cid13_p3	lambda_cid13_p4	lambda_cid13_p5	lambda_cid14_p0	/jointset/ground_pelvis/pelvis_tilt/accel	/jointset/ground_pelvis/pelvis_tx/accel	/jointset/ground_pelvis/pelvis_ty/accel	/jointset/hip_l/hip_flexion_l/accel	/jointset/hip_l/hip_adduction_l/accel	/jointset/hip_l/hip_rotation_l/accel	/jointset/back/lumbar_extension/accel	/jointset/patellofemoral_l/patellar_flexion_l/accel	/jointset/knee_l/knee_flexion_l/accel	/jointset/knee_l/knee_adduction_l/accel	/jointset/knee_l/knee_rotation_l/accel	/jointset/ankle_l/ankle_angle_l/accel	/jointset/subtalar_l/subtalar_angle_l/accel	gamma_cid13_p0	gamma_cid13_p1	gamma_cid13_p2	gamma_cid13_p3	gamma_cid13_p4	gamma_cid13_p5	gamma_cid14_p0
0.5	-0.3322344412720852	-0.03024814575660719	0.7657024487223246	1.167260049215413	-0.3049473878797786	0.01169785519029624	-0.3208285937598943	0.8185478778315926	0.8185478778315923	-0.1735798972129169	0.1668763342737891	0.1653195475963905	-0.0190876330795	-0.4356256614802476	-0.167595954906722	-0.5164786732692218	2.147968826671328	0.01356695188916002	0.7051975378455688	-0.638860206332478	2.134221809936774	2.134221809936777	-0.002873652020082365	0.04677940699785894	0.5460995980447989	0.1047593191902258	-0.1838414075984878	0.02799081160315322	-0.02638913816976008	-0.2599279301607807	0.1047546662265307	0.02935469365292854	0.1834463076051986	-4.558726865582063	-14.23454603067844	4.475836997687994	-2.230614312476745	-602.1638380740175	-51.09223883918922	-20.38480559792665	0.4905396348415823	0.5517570993701925	-0.4628128796903818	-1.246677882201704	0.6876434665697583	-0.3118608524776003	1.562568919606301	-1.32134176136232	-1.321341761362324	0.02178597039812862	-0.1190312058383755	-0.583783523720228	0.7064159798238336	-4.538765659518158e-07	-5.322151798487989e-07	2.813584591432605e-06	3.122489468416021e-07	-5.712942448254019e-07	-3.138320655754616e-07	-4.41782439469751e-07
0.51	-0.33656513935685	-0.03189622776180995	0.7605157247751555	1.188673356500251	-0.3047788628414903	0.01873547234926792	-0.3271383817979663	0.839820177362099	0.8398201773620938	-0.1736113253785719	0.1673377636082649	0.1707499861927421	-0.01800650183643801	-0.43045416218014	-0.161998261138662	-0.520746498830972	2.134372535096844	0.02011783581019042	0.7022311325996349	-0.6229864282236758	2.119922214484733	2.119922214484737	-0.003397108198637981	0.04549866144091744	0.5399041011090541	0.1114510699210172	-0.1905704778194821	0.02843470191140194	-0.02644121400738345	-0.2627476072705009	0.1030819745261	0.02951946423254357	0.1891335356252048	-5.351997948061586	-14.05042854017228	4.31309020302495	-1.993275292523774	-607.0008341678907	-50.79230833280064	-19.07929106286861	0.5393889619866185	0.5671648234424878	-0.3909346211206216	-1.464167955044598	0.6354140645087547	-0.3036313874434194	1.616428215257583	-1.531564931225887	-1.531564931226147	-0.08716198384138829	-0.1343106281968413	-0.6500180351372292	0.6479298958292543	-4.209949635307427e-07	-4.332474610015937e-07	2.691893152234981e-06	3.05924917225503e-07	-5.321780827517258e-07	-2.160408418004506e-07	-4.163796025658497e-07
0.52	-0.3408423356717353	-0.0334876549677484	0.7552898891270281	1.209941088237348	-0.3045455083220638	0.02574050525042187	-0.3332861028632024	0.8609400216392652	0.8609400216392548	-0.1736475382203842	0.1677860426076564	0.1761159527684091	-0.01685897803084361	-0.424925307504381	-0.156264995053859	-0.5243010134608534	2.118853717123447	0.02653284811678548	0.6986806862820166	-0.6064468117652571	2.103730759268655	2.103730759268655	-0.003830587251554163	0.04414933998099516	0.533205193907884	0.1180378316967071	-0.1972995480404766	0.02887859221965068	-0.02649328984500723	-0.265567284380221	0.1014092828256694	0.02968423481215865	0.1948207636452107	-6.150075845967841	-13.86747366559697	4.152820154453257	-1.771832411867173	-611.931672673164	-50.58000800887285	-17.7730088750959	0.5620107099718918	0.5788715627187809	-0.3201506933166421	-1.631183161984058	0.6604691436826906	-0.42866906681442	1.695736589529602	-1.699713714169761	-1.699713714169754	0.03978139552601741	-0.1327463864333919	-0.684465576805282	0.6854181888035326	-3.906938741609858e-07	-3.29871571177214e-07	2.574521460914813e-06	3.021501837992276e-07	-4.979206969603007e-07	-1.225384671797204e-07	-3.913068336403564e-07
0.53	-0.3450625742052117	-0.03502115319344918	0.7500321030575618	1.231044316597967	-0.3042486279886644	0.03270732081105421	-0.3392652227556701	0.8818887362925982	0.881888736292597	-0.1736875583761079	0.1682203724114514	0.1814125508226098	-0.0156460509396961	-0.419067114946489	-0.1504193785994117	-0.5271330867091467	2.101484218620044	0.03281062703962618	0.6946077688435278	-0.589284675498647	2.085709915844038	2.08570991584404	-0.004182116188461993	0.04270479799978007	0.5260370669560864	0.1245169152583801	-0.203883075537776	0.0290879979499722	-0.02647869382936687	-0.2684810516278591	0.09980785564637244	0.02974303571709282	0.2003588380393084	-6.929969270818964	-13.63664824911329	3.979168650593246	-1.505560097075898	-616.8570642511728	-50.33226802728615	-16.46960367265922	0.6059879640613033	0.5897574433395865	-0.2463645674843216	-1.836034180636314	0.6061953458781325	-0.4081350650510923	1.740325829671449	-1.898532362233109	-1.89853236223286	-0.07389193751918645	-0.152581478275106	-0.7445657050241649	0.6243012691406513	-3.583535793177829e-07	-2.251623365456671e-07	2.4487500551964e-06	2.967377061213844e-07	-4.61653877531665e-07	-3.11655296676805e-08	-3.64648031823112e-07
0.54	-0.3492225779260366	-0.03649572510329922	0.7447496704702331	1.251964609776329	-0.3038900172501778	0.03963110080076471	-0.3450699465485826	0.9026481899705598	0.9026481899705679	-0.1737313482010447	0.1686398021205723	0.1866351517171611	-0.01436930344707357	-0.4128783449740591	-0.1444797318837101	-0.5292303170333865	2.082266680671926	0.03887892913420185	0.6900735720976404	-0.5715675918542473	2.065878564194402	2.065878564194406	-0.004584521094170013	0.04116932104618113	0.5184057619780026	0.1308019119917117	-0.2104666030350756	0.02929740368029369	-0.02646409781372671	-0.2713948188754972	0.09820642846707556	0.02980183662202697	0.205896912433406	-7.714573353803586	-13.40655066642664	3.807408576664814	-1.255018028341214	-621.8724711239089	-50.16403166356821	-15.17439842202346	0.628126192879453	0.5976776149696298	-0.1731821085059795	-2.000791050926989	0.618573778029686	-0.520924928294073	1.806726065087533	-2.061815359173764	-2.061815359173763	0.02960620176597479	-0.1509333809103885	-0.7771011820624923	0.646600823135255	-3.237571422486399e-07	-1.189779119147013e-07	2.313685348441631e-06	2.895132560801043e-07	-4.231638549299454e-07	5.785143487304236e-08	-3.362344702107386e-07
0.55	-0.3533191983848765	-0.03791051480781573	0.7394499457725356	1.27268386069236	-0.3034716079048948	0.04650700839262346	-0.3506948785259939	0.9232006040345729	0.9232006040345717	-0.1737788770529423	0.1690435238095353	0.1917792970346645	-0.01303048783033055	-0.4063989333732976	-0.1384701335492039	-0.5305901609839383	2.06129541705464	0.04476543603816346	0.6850121899340171	-0.5533479542277807	2.044322634027385	2.044322634027385	-0.004912051870620728	0.0395818552927043	0.5103548987620029	0.1369240985350598	-0.2167726615256625	0.02935490346663794	-0.02639487235055458	-0.274457780176921	0.09679846844991914	0.0296888054319269	0.2111740553464879	-8.437539727598015	-13.10379164659578	3.613979795286865	-0.9883132235286498	-626.7816461349495	-49.90823917106983	-13.89103747111162	0.6648501599303803	0.6038693777781667	-0.09879674386609408	-2.188537977066018	0.5677381577240331	-0.5133836683872507	1.840210021459081	-2.244659885351495	-2.24465988535208	-0.06251165058918534	-0.162075727653295	-0.8293104652101547	0.5892067062544878	-2.887333931309322e-07	-2.386782105188717e-08	2.166237962682967e-06	2.788479343133145e-07	-3.837822164010422e-07	1.355338887541963e-07	-3.071026488191235e-07
0.5600000000000001	-0.3573496244244576	-0.03926495484196977	0.7341403403942254	1.293184750180231	-0.3029955236883431	0.05332937440124783	-0.3561354886451338	0.9435290231889384	0.9435290231889278	-0.173829396999252	0.1694314863299463	0.1968408874052396	-0.01163161452089006	-0.3996394611223012	-0.1324097978112159	-0.5312064531559427	2.03859439503989	0.05041390338790974	0.6793652554507614	-0.5347032201999999	2.021079582264933	2.021079582264929	-0.005182739976609249	0.03801748733575726	0.5018947725923455	0.1428134505312042	-0.2230787200162495	0.02941240325298219	-0.02632564688738247	-0.2775207414783447	0.09539050843276276	0.02957577424182683	0.2164511982595699	-9.165309541579784	-12.80079119809971	3.421199258101367	-0.7373401555240432	-631.7798533879321	-49.72170286973246	-12.62247144198486	0.6841383229264028	0.6078250956659834	-0.02447175279655403	-2.346742730419706	0.5709658671866206	-0.6380353922206183	1.891745345350366	-2.399239678260785	-2.399239678260776	0.04097473585841417	-0.146313821603592	-0.8589537727940171	0.6000339136945272	-2.531968695549469e-07	5.795306928914555e-08	2.003931362119629e-06	2.640535664759134e-07	-3.433306387595185e-07	1.996149298438681e-07	-2.771089156924187e-07
0.5700000000000001	-0.3613112118511893	-0.04055863279963265	0.7288282724473707	1.313450377990497	-0.3024639756177797	0.06009233782061933	-0.3613877135600312	0.9636168815543935	0.963616881554391	-0.1738819330873791	0.1698038085891969	0.2018159827109274	-0.01017482114306546	-0.3926396630023831	-0.1263260073110347	-0.5310835519767013	2.014265913490313	0.05585403236726305	0.6731431883441753	-0.5156961840877903	1.996228698775475	1.996228698775473	-0.005319692214674801	0.03644766487465404	0.4930628046151559	0.148501476764949	-0.2290544790238571	0.02928142654283218	-0.02619096446694356	-0.2806503282542392	0.09406399087885564	0.02937672667301513	0.2214073521723883	-9.859317021831707	-12.4612972328167	3.216832759401449	-0.4367340054762001	-636.5645204637898	-49.51674461634182	-11.37119378183972	0.7136411518386232	0.6086751257494952	0.04914459924015719	-2.515711210606235	0.5239950104687224	-0.6271439073247879	1.912019547909481	-2.56746946332705	-2.567469463326807	-0.04026352791960038	-0.1625968675336449	-0.9045088103355251	0.5463826959262165	-2.209806315751602e-07	1.141993057187136e-07	1.844239280424859e-06	2.476666891545552e-07	-3.069853637956574e-07	2.466479572893731e-07	-2.497256423988413e-07
0.58	-0.3652016531776589	-0.04179146903258255	0.7235211282214997	1.333464758916591	-0.3018793345379909	0.06679051026143555	-0.3664485007530558	0.983448339729146	0.9834483397291518	-0.173935685362743	0.1701603765420025	0.2067009202368126	-0.008662508359361054	-0.3854102410699006	-0.1202414528686208	-0.5302217089592336	1.988345018205556	0.06103250523297769	0.6664070597397014	-0.4964156758254515	1.969799544124468	1.969799544124467	-0.005425977423962775	0.03486662604675386	0.4838632166318025	0.1539173317071642	-0.2350302380314633	0.02915044983268219	-0.0260562820465048	-0.2837799150301339	0.09273747332494843	0.02917767910420346	0.2263635060852068	-10.55860680264548	-12.1208672100186	3.012305874310475	-0.1494788115311348	-641.4416536546636	-49.37170898958681	-10.13933597043466	0.7300630854393149	0.6079778841125554	0.1233166148486735	-2.66522547745563	0.5186346444588866	-0.7408476917982164	1.946439775376234	-2.714893910570605	-2.714893910570603	0.04710814161392959	-0.148557094962852	-0.9324777740267889	0.5455996553886318	-1.93088486464842e-07	1.371390161240492e-07	1.687952153535668e-06	2.292058459936254e-07	-2.759878318538683e-07	2.714789204541034e-07	-2.257420377251508e-07
